<?xml version="1.0" encoding="UTF-8"?>
<svg id="Capa_1" data-name="Capa 1" xmlns="http://www.w3.org/2000/svg" viewBox="0 0 783.25 385.35">
  <defs>
    <style>
      .cls-1 {
        fill: #fff;
        stroke-width: 0px;
      }
    </style>
  </defs>
  <path class="cls-1" d="M482.47,66.93c-9.7,0-18.9,2.13-27.17,5.95-8.02-27.58-33.49-47.75-63.67-47.75s-55.65,20.17-63.67,47.75c-8.27-3.82-17.47-5.95-27.17-5.95-35.89,0-64.97,29.09-64.97,64.97v27.7h311.62v-27.7c0-35.88-29.08-64.97-64.97-64.97ZM391.62,116.12c-13.58,0-24.6-11.01-24.6-24.6s11.02-24.6,24.6-24.6,24.61,11.01,24.61,24.6-11.02,24.6-24.61,24.6Z"/>
  <g>
    <path class="cls-1" d="M97.01,323.44c-10.29,0-18.84-2.38-25.63-7.15-6.8-4.76-11.88-11.08-15.25-18.96-3.37-7.88-5.05-16.51-5.05-25.92,0-10.29,1.91-19.34,5.72-27.16,3.81-7.81,9.34-13.91,16.58-18.29,7.24-4.38,16.07-6.58,26.49-6.58,3.43,0,6.7.35,9.81,1.05,3.11.7,6,1.72,8.67,3.05s4.89,3.02,6.67,5.05v-41.54h33.73v134.92h-32.97v-8.77c-2.41,2.29-5.12,4.19-8.1,5.72-2.99,1.52-6.19,2.67-9.62,3.43-3.43.76-7.12,1.14-11.05,1.14ZM104.44,292.76c5.08,0,9.12-1.05,12.1-3.14,2.98-2.1,5.15-4.76,6.48-8,1.33-3.24,2-6.58,2-10s-.67-6.96-2-10.2c-1.33-3.24-3.5-5.91-6.48-8-2.99-2.1-6.96-3.14-11.91-3.14s-9.08,1.14-12.01,3.43c-2.92,2.29-4.99,5.12-6.19,8.48-1.21,3.37-1.81,6.7-1.81,10,0,2.54.35,5.05,1.05,7.53.7,2.48,1.84,4.7,3.43,6.67,1.59,1.97,3.65,3.53,6.19,4.67,2.54,1.14,5.59,1.71,9.15,1.71Z"/>
    <path class="cls-1" d="M224.69,323.44c-15.37,0-27.28-3.84-35.73-11.53-8.45-7.69-12.67-19.21-12.67-34.59v-55.84h33.73v53.17c0,3.31.44,6.32,1.33,9.05.89,2.73,2.44,4.93,4.67,6.58,2.22,1.65,5.17,2.48,8.86,2.48,4.19,0,7.21-.95,9.05-2.86,1.84-1.91,2.98-4.29,3.43-7.15.44-2.86.67-5.56.67-8.1v-53.17h33.54v55.84c0,16.39-4.23,28.17-12.67,35.35-8.45,7.18-19.85,10.77-34.21,10.77Z"/>
    <path class="cls-1" d="M338.27,323.44c-9.91,0-18.84-1.97-26.78-5.91-7.94-3.94-14.26-9.75-18.96-17.44-4.7-7.69-7.05-17.06-7.05-28.11s2.38-20.87,7.15-28.68c4.76-7.81,11.08-13.75,18.96-17.82,7.88-4.06,16.58-6.1,26.11-6.1s18.58,2.1,26.39,6.29,14.04,10.23,18.68,18.1c4.64,7.88,6.96,17.47,6.96,28.78s-2.22,20.2-6.67,27.82c-4.45,7.62-10.55,13.37-18.29,17.25-7.75,3.88-16.58,5.81-26.49,5.81ZM337.69,292.19c4.83,0,8.64-1.01,11.43-3.05,2.79-2.03,4.76-4.6,5.91-7.72,1.14-3.11,1.71-6.19,1.71-9.24s-.57-6.22-1.71-9.53c-1.14-3.3-3.08-6.1-5.81-8.38-2.73-2.29-6.58-3.43-11.53-3.43s-8.67,1.14-11.53,3.43c-2.86,2.29-4.86,5.05-6,8.29-1.14,3.24-1.71,6.45-1.71,9.62s.6,6.32,1.81,9.43c1.21,3.11,3.21,5.65,6,7.62,2.79,1.97,6.6,2.95,11.43,2.95Z"/>
    <path class="cls-1" d="M403.82,360.22v-138.74h31.25l1.71,11.05c4.57-4.96,9.27-8.38,14.1-10.29,4.83-1.91,10.29-2.86,16.39-2.86,9.65,0,17.72,2.32,24.2,6.96,6.48,4.64,11.37,10.86,14.67,18.68,3.3,7.81,4.95,16.55,4.95,26.2s-1.75,18.8-5.24,26.68c-3.5,7.88-8.64,14.1-15.44,18.68-6.8,4.57-15.09,6.86-24.87,6.86-3.94,0-7.72-.48-11.34-1.43-3.62-.95-6.86-2.19-9.72-3.72s-5.18-3.17-6.96-4.96v46.88h-33.73ZM458.71,292.76c5.08,0,9.02-1.08,11.82-3.24,2.79-2.16,4.73-4.83,5.81-8,1.08-3.17,1.62-6.22,1.62-9.15,0-3.43-.64-6.86-1.91-10.29-1.27-3.43-3.33-6.26-6.19-8.48-2.86-2.22-6.77-3.33-11.72-3.33-4.57,0-8.38,1.05-11.43,3.14-3.05,2.1-5.34,4.76-6.86,8-1.52,3.24-2.29,6.64-2.29,10.2s.73,6.76,2.19,10c1.46,3.24,3.75,5.91,6.86,8,3.11,2.1,7.15,3.14,12.1,3.14Z"/>
    <path class="cls-1" d="M525.22,360.22v-138.74h31.25l1.71,11.05c4.57-4.96,9.27-8.38,14.1-10.29,4.83-1.91,10.29-2.86,16.39-2.86,9.65,0,17.72,2.32,24.2,6.96,6.48,4.64,11.37,10.86,14.67,18.68,3.3,7.81,4.95,16.55,4.95,26.2s-1.75,18.8-5.24,26.68c-3.5,7.88-8.64,14.1-15.44,18.68-6.8,4.57-15.09,6.86-24.87,6.86-3.94,0-7.72-.48-11.34-1.43-3.62-.95-6.86-2.19-9.72-3.72s-5.18-3.17-6.96-4.96v46.88h-33.73ZM580.1,292.76c5.08,0,9.02-1.08,11.82-3.24,2.79-2.16,4.73-4.83,5.81-8,1.08-3.17,1.62-6.22,1.62-9.15,0-3.43-.64-6.86-1.91-10.29-1.27-3.43-3.33-6.26-6.19-8.48-2.86-2.22-6.77-3.33-11.72-3.33-4.57,0-8.38,1.05-11.43,3.14-3.05,2.1-5.34,4.76-6.86,8-1.52,3.24-2.29,6.64-2.29,10.2s.73,6.76,2.19,10c1.46,3.24,3.75,5.91,6.86,8,3.11,2.1,7.15,3.14,12.1,3.14Z"/>
    <path class="cls-1" d="M687.77,323.44c-4.96,0-9.98-.57-15.05-1.71-5.08-1.14-9.81-3.05-14.2-5.72-4.38-2.67-8.1-6.32-11.15-10.96-3.05-4.64-5.08-10.45-6.1-17.44h34.11c.51,1.65,1.43,3.11,2.76,4.38,1.33,1.27,2.98,2.26,4.96,2.95,1.97.7,4.1,1.05,6.38,1.05,1.53,0,2.89-.12,4.1-.38,1.21-.25,2.25-.67,3.14-1.24.89-.57,1.55-1.24,2-2,.44-.76.67-1.59.67-2.48,0-1.78-.7-3.08-2.1-3.91-1.4-.82-3.3-1.46-5.72-1.91-2.42-.44-5.15-.98-8.19-1.62-4.7-1.02-9.75-2.32-15.15-3.91-5.4-1.59-9.94-3.59-13.63-6-1.91-1.27-3.53-2.7-4.86-4.29-1.33-1.59-2.42-3.33-3.24-5.24-.83-1.91-1.43-3.87-1.81-5.91-.38-2.03-.57-4.19-.57-6.48,0-5.84,1.3-10.77,3.91-14.77,2.6-4,5.97-7.21,10.1-9.62,4.13-2.41,8.7-4.16,13.72-5.24,5.02-1.08,9.94-1.62,14.77-1.62,7.11,0,13.75,1.14,19.92,3.43,6.16,2.29,11.31,5.97,15.44,11.05,4.13,5.08,6.7,11.82,7.72,20.2h-32.59c-.26-2.29-1.49-4.06-3.72-5.34-2.22-1.27-4.92-1.91-8.1-1.91-1.27,0-2.45.13-3.53.38-1.08.26-2.03.57-2.86.95-.83.38-1.46.89-1.91,1.52-.45.64-.67,1.33-.67,2.1,0,.51.16,1.08.48,1.71.32.64.92,1.24,1.81,1.81.89.57,2.1,1.11,3.62,1.62,4.19,1.02,8.16,1.91,11.91,2.67,3.75.76,7.53,1.52,11.34,2.29,4.19.76,8.32,2.07,12.39,3.91,4.06,1.84,7.46,4.61,10.2,8.29,2.73,3.69,4.1,8.83,4.1,15.44s-1.33,11.91-4,16.29c-2.67,4.38-6.19,7.85-10.58,10.39-4.38,2.54-9.18,4.38-14.39,5.53-5.21,1.14-10.36,1.71-15.44,1.71Z"/>
  </g>
</svg>